<?xml version="1.0" encoding="UTF-8"?><svg height="19" viewBox="0 0 15 15" width="19" xmlns="http://www.w3.org/2000/svg" ><path clip-rule="evenodd" d="m7.5,0C3.3579,0,0,3.3579,0,7.5s3.3579,7.5,7.5,7.5,7.5-3.3579,7.5-7.5S11.6422,0,7.5,0ZM1.0758,7.5C1.0758,3.952,3.952,1.0758,7.5,1.0758s6.4241,2.8762,6.4241,6.4242-2.8762,6.4242-6.4241,6.4242S1.0758,11.048,1.0758,7.5Zm9.4354-2.222c.1799-.2557.1186-.609-.1371-.7889-.2558-.18-.609-.1185-.789.1372l-3.195,4.5403-1.317-1.3414c-.2191-.2231-.5776-.2264-.8007-.0073-.2231.2191-.2264.5776-.0073.8007l1.793,1.8262c.1177.1199.2826.1813.4501.1676.1675-.0136.3202-.101.417-.2385l3.5861-5.096Z" fill="#01c38d" fill-rule="evenodd"   />
</svg>
