<svg xmlns="http://www.w3.org/2000/svg" xmlns:xlink="http://www.w3.org/1999/xlink" viewBox="0 0 680 623.785"><defs><linearGradient id="a" x1="325.2394" y1="428.5887" x2="354.9022" y2="472.6431" gradientUnits="userSpaceOnUse"><stop offset="0.2392" stop-color="#e4f2fb"/><stop offset="0.7722" stop-color="#becdd6"/></linearGradient><linearGradient id="b" x1="449.9388" y1="129.2778" x2="293.9921" y2="147.78" gradientUnits="userSpaceOnUse"><stop offset="0.3139" stop-color="#fff"/><stop offset="0.4392" stop-color="#e4f2fb"/><stop offset="0.76" stop-color="#aebac3"/></linearGradient><linearGradient id="c" x1="410.8341" y1="108.7931" x2="338.5866" y2="137.8683" gradientUnits="userSpaceOnUse"><stop offset="0.3139" stop-color="#3a788a"/><stop offset="0.7595" stop-color="#33505e"/></linearGradient><linearGradient id="d" x1="425.0399" y1="95.8427" x2="356.0289" y2="109.352" gradientUnits="userSpaceOnUse"><stop offset="0.1415" stop-color="#fff"/><stop offset="0.5674" stop-color="#e20613"/></linearGradient><linearGradient id="e" x1="363.784" y1="151.726" x2="376.5623" y2="158.5007" gradientUnits="userSpaceOnUse"><stop offset="0" stop-color="#e4f2fb"/><stop offset="0.1793" stop-color="#b6c3cc"/></linearGradient><linearGradient id="f" x1="375.6199" y1="145.119" x2="359.7529" y2="195.7422" gradientUnits="userSpaceOnUse"><stop offset="0.2095" stop-color="#9e151a"/><stop offset="0.636" stop-color="#e20613"/></linearGradient><linearGradient id="g" x1="323.9933" y1="372.4035" x2="323.1122" y2="437.0155" gradientUnits="userSpaceOnUse"><stop offset="0.2392" stop-color="#e4f2fb"/><stop offset="0.5859" stop-color="#becdd6"/></linearGradient><linearGradient id="h" x1="335.5199" y1="386.0379" x2="331.555" y2="423.4838" gradientUnits="userSpaceOnUse"><stop offset="0.0161" stop-color="#fff"/><stop offset="0.4553" stop-color="#00507d"/><stop offset="0.8153" stop-color="#272c5e"/></linearGradient><linearGradient id="i" x1="374.811" y1="373.5537" x2="370.2337" y2="468.8826" gradientUnits="userSpaceOnUse"><stop offset="0.2392" stop-color="#e4f2fb"/><stop offset="0.3565" stop-color="#becdd6"/></linearGradient><linearGradient id="j" x1="360.1449" y1="376.5575" x2="366.7527" y2="426.9971" gradientUnits="userSpaceOnUse"><stop offset="0.0161" stop-color="#fff"/><stop offset="0.5924" stop-color="#00507d"/><stop offset="0.8571" stop-color="#272c5e"/></linearGradient><linearGradient id="k" x1="392.0329" y1="408.0027" x2="371.9046" y2="407.7066" gradientUnits="userSpaceOnUse"><stop offset="0.1378" stop-color="#e4f2fb"/><stop offset="0.3414" stop-color="#b6c3cc"/></linearGradient><linearGradient id="l" x1="509.0831" y1="391.683" x2="520.8333" y2="470.9815" gradientUnits="userSpaceOnUse"><stop offset="0.0371" stop-color="#fff"/><stop offset="0.4449" stop-color="#00507d"/><stop offset="0.703" stop-color="#272c5e"/></linearGradient><linearGradient id="m" x1="464.7462" y1="359.8415" x2="241.3891" y2="177.8959" gradientUnits="userSpaceOnUse"><stop offset="0.2644" stop-color="#adb7b4"/><stop offset="0.6427" stop-color="#e2e7e8"/></linearGradient><linearGradient id="n" x1="349.3518" y1="130.3475" x2="351.114" y2="166.4722" gradientUnits="userSpaceOnUse"><stop offset="0.2302" stop-color="#fff"/><stop offset="0.7247" stop-color="#e20613"/></linearGradient><linearGradient id="o" x1="244.8862" y1="315.2668" x2="211.6749" y2="363.6398" gradientUnits="userSpaceOnUse"><stop offset="0.1594" stop-color="#fff9c8"/><stop offset="0.5057" stop-color="#ffec00"/></linearGradient><linearGradient id="p" x1="453.0294" y1="321.8684" x2="432.8388" y2="351.2765" gradientTransform="translate(626.7484 -196.5951) rotate(72.4188)" xlink:href="#o"/><linearGradient id="q" x1="465.4659" y1="171.6643" x2="432.2545" y2="220.0374" xlink:href="#o"/><linearGradient id="r" x1="262.947" y1="142.0434" x2="229.7356" y2="190.4166" gradientTransform="translate(36.1285 -47.6851) rotate(11.5374)" xlink:href="#o"/><linearGradient id="s" x1="345.9968" y1="229.7158" x2="266.704" y2="196.2366" gradientUnits="userSpaceOnUse"><stop offset="0.2551" stop-color="#c6d3d7"/><stop offset="0.7361" stop-color="#9c9b9b"/></linearGradient><linearGradient id="t" x1="363.9779" y1="243.4805" x2="427.2588" y2="297.7217" gradientUnits="userSpaceOnUse"><stop offset="0.217" stop-color="#b4bfbd"/><stop offset="0.6053" stop-color="#7c7b7b"/></linearGradient><linearGradient id="u" x1="290.5519" y1="225.8403" x2="335.5641" y2="225.8403" xlink:href="#s"/><linearGradient id="v" x1="331.986" y1="270.8954" x2="401.3483" y2="279.408" gradientUnits="userSpaceOnUse"><stop offset="0.2551" stop-color="#c6d3d7"/><stop offset="0.4753" stop-color="#9c9b9b"/></linearGradient><linearGradient id="w" x1="382.0079" y1="230.1377" x2="388.1588" y2="246.0452" gradientUnits="userSpaceOnUse"><stop offset="0" stop-color="#c6d3d7"/><stop offset="0.7361" stop-color="#9c9b9b"/></linearGradient><linearGradient id="x" x1="312.9515" y1="289.076" x2="263.417" y2="261.635" gradientUnits="userSpaceOnUse"><stop offset="0.0507" stop-color="#c6d3d7"/><stop offset="0.5106" stop-color="#9c9b9b"/></linearGradient><linearGradient id="y" x1="326.3623" y1="294.8347" x2="380.3342" y2="338.0123" gradientUnits="userSpaceOnUse"><stop offset="0.1016" stop-color="#c6d3d7"/><stop offset="0.8124" stop-color="#9c9b9b"/></linearGradient><linearGradient id="z" x1="309.3712" y1="320.0183" x2="360.6868" y2="318.2564" gradientUnits="userSpaceOnUse"><stop offset="0.2463" stop-color="#c6d3d7"/><stop offset="0.4521" stop-color="#9c9b9b"/></linearGradient><linearGradient id="aa" x1="425.2172" y1="339.9928" x2="438.4333" y2="388.452" gradientUnits="userSpaceOnUse"><stop offset="0.0161" stop-color="#fff"/><stop offset="0.3973" stop-color="#00507d"/><stop offset="0.8153" stop-color="#272c5e"/></linearGradient><linearGradient id="ab" x1="418.3212" y1="360.3164" x2="443.2282" y2="421.592" gradientUnits="userSpaceOnUse"><stop offset="0.2392" stop-color="#e4f2fb"/><stop offset="0.708" stop-color="#becdd6"/></linearGradient><linearGradient id="ac" x1="480.6771" y1="457.5796" x2="435.5157" y2="402.5486" gradientUnits="userSpaceOnUse"><stop offset="0.2567" stop-color="#e4f2fb"/><stop offset="0.6585" stop-color="#9ca7ae"/></linearGradient><linearGradient id="ad" x1="459.4509" y1="378.4076" x2="407.2471" y2="462.5506" gradientUnits="userSpaceOnUse"><stop offset="0.2804" stop-color="#e4f2fb"/><stop offset="0.8608" stop-color="#becdd6"/></linearGradient><linearGradient id="ae" x1="430.0104" y1="404.8744" x2="489.8458" y2="394.7119" gradientUnits="userSpaceOnUse"><stop offset="0.2255" stop-color="#e4f2fb"/><stop offset="0.4393" stop-color="#becdd6"/></linearGradient><linearGradient id="af" x1="464.5705" y1="368.0847" x2="479.9899" y2="437.2518" gradientUnits="userSpaceOnUse"><stop offset="0.2313" stop-color="#e4f2fb"/><stop offset="0.5772" stop-color="#becdd6"/></linearGradient><linearGradient id="ag" x1="455.9699" y1="369.2956" x2="482.1114" y2="420.4015" gradientUnits="userSpaceOnUse"><stop offset="0.0161" stop-color="#fff"/><stop offset="0.4089" stop-color="#00507d"/><stop offset="0.6858" stop-color="#272c5e"/></linearGradient><linearGradient id="ah" x1="433.2542" y1="387.7873" x2="432.3731" y2="437.5641" gradientUnits="userSpaceOnUse"><stop offset="0.1159" stop-color="#fff"/><stop offset="0.4924" stop-color="#00507d"/><stop offset="0.851" stop-color="#272c5e"/></linearGradient><linearGradient id="ai" x1="408.2201" y1="543.971" x2="349.1911" y2="405.2085" gradientUnits="userSpaceOnUse"><stop offset="0.2163" stop-color="#adb7b4"/><stop offset="0.5914" stop-color="#e2e7e8"/></linearGradient><linearGradient id="aj" x1="397.1044" y1="392.1384" x2="378.89" y2="514.5062" gradientUnits="userSpaceOnUse"><stop offset="0.2154" stop-color="#e4f2fb"/><stop offset="0.3965" stop-color="#becdd6"/></linearGradient><linearGradient id="ak" x1="359.7269" y1="414.2878" x2="381.3118" y2="444.4626" gradientUnits="userSpaceOnUse"><stop offset="0.0161" stop-color="#fff"/><stop offset="0.4576" stop-color="#00507d"/><stop offset="0.8153" stop-color="#272c5e"/></linearGradient><linearGradient id="al" x1="417.1059" y1="447.243" x2="442.2199" y2="393.4903" gradientUnits="userSpaceOnUse"><stop offset="0.2163" stop-color="#adb7b4"/><stop offset="0.6272" stop-color="#e2e7e8"/></linearGradient><linearGradient id="am" x1="442.472" y1="414.7291" x2="465.8396" y2="439.7889" gradientUnits="userSpaceOnUse"><stop offset="0.2091" stop-color="#e4f2fb"/><stop offset="0.562" stop-color="#becdd6"/></linearGradient><linearGradient id="an" x1="472.3683" y1="402.1257" x2="494.3929" y2="465.3362" gradientUnits="userSpaceOnUse"><stop offset="0.2804" stop-color="#e4f2fb"/><stop offset="0.6243" stop-color="#becdd6"/></linearGradient><linearGradient id="ao" x1="470.6887" y1="416.1515" x2="476.0507" y2="426.848" gradientUnits="userSpaceOnUse"><stop offset="0.1993" stop-color="#e4f2fb"/><stop offset="0.6457" stop-color="#becdd6"/></linearGradient><linearGradient id="ap" x1="384.378" y1="425.7799" x2="372.7952" y2="440.8663" gradientUnits="userSpaceOnUse"><stop offset="0" stop-color="#e4f2fb"/><stop offset="0.2415" stop-color="#b6c3cc"/></linearGradient><linearGradient id="aq" x1="422.9904" y1="382.5351" x2="425.8564" y2="391.7219" gradientUnits="userSpaceOnUse"><stop offset="0.3243" stop-color="#e4f2fb"/><stop offset="0.4927" stop-color="#becdd6"/></linearGradient><linearGradient id="ar" x1="378.0515" y1="153.485" x2="393.6938" y2="165.0894" gradientUnits="userSpaceOnUse"><stop offset="0.1403" stop-color="#e4f2fb"/><stop offset="0.3566" stop-color="#b6c3cc"/></linearGradient><linearGradient id="as" x1="392.1208" y1="177.9127" x2="378.6813" y2="185.2555" gradientUnits="userSpaceOnUse"><stop offset="0.3481" stop-color="#adb7b4"/><stop offset="0.5914" stop-color="#e2e7e8"/></linearGradient><linearGradient id="at" x1="369.0213" y1="174.2655" x2="355.9608" y2="172.1714" gradientUnits="userSpaceOnUse"><stop offset="0.4996" stop-color="#adb7b4"/><stop offset="0.5914" stop-color="#e2e7e8"/></linearGradient><linearGradient id="au" x1="386.4702" y1="148.2907" x2="335.3675" y2="184.1949" gradientUnits="userSpaceOnUse"><stop offset="0.0393" stop-color="#fff"/><stop offset="0.421" stop-color="#e20613"/></linearGradient><linearGradient id="av" x1="412.1299" y1="151.817" x2="359.4818" y2="188.3843" gradientUnits="userSpaceOnUse"><stop offset="0.1888" stop-color="#fff"/><stop offset="0.5525" stop-color="#e20613"/></linearGradient><linearGradient id="aw" x1="341.0931" y1="429.6142" x2="360.3162" y2="460.4176" gradientUnits="userSpaceOnUse"><stop offset="0.0161" stop-color="#fff"/><stop offset="0.5187" stop-color="#00507d"/><stop offset="0.8571" stop-color="#272c5e"/></linearGradient><linearGradient id="ax" x1="251.1993" y1="369.776" x2="442.0036" y2="250.8332" gradientUnits="userSpaceOnUse"><stop offset="0" stop-color="#adb7b4"/><stop offset="1" stop-color="#fff"/></linearGradient></defs><g style="isolation:isolate"><rect x="-35" y="-28.1075" width="829" height="829" style="fill:#fafafa"/><path d="M355.113,452.4146l-9.6334,8.0879a5.5137,5.5137,0,0,1-4.8166,0c-4.4607-2.533-10.5143-8.2839-14.7512-12.5793-2.9752-2.9978-5.037-5.3068-5.037-5.3068a4.0085,4.0085,0,0,1-.8553-4.1027c3.2748-3.717,8.945-5.204,8.945-5.204,2.9463,1.2082,15.5238,5.204,15.5238,5.204Z" style="fill:url(#a)"/><path d="M386.1826,164.15c-.3872.74-.7742,1.5144-1.2338,2.2922a114.4154,114.4154,0,0,1-6.4843,10.7483c-.4233.7056-.9153,1.4076-1.4093,2.1132l-.2461-.1068L353.9013,170a70.5909,70.5909,0,0,1,1.1979-14.1313c.2819-1.5179.5988-3.1045.9857-4.7944a87.6966,87.6966,0,0,1,30.0977-48.9872,94.38,94.38,0,0,1,11.3126-7.9656,68.067,68.067,0,0,1,1.9394,13.8508C399.9975,120.66,398.2717,140.96,386.1826,164.15Z" style="fill:url(#b)"/><path d="M393.0092,118.7089a6.8058,6.8058,0,0,1-6.811,6.8078h0a6.8046,6.8046,0,0,1-6.81-6.8078h0a6.8076,6.8076,0,0,1,6.81-6.8111h0a6.8088,6.8088,0,0,1,6.811,6.8111Z" style="fill:url(#c)"/><path d="M399.4192,107.9707c-9.2013-.3337-13.221-5.8989-13.221-5.8989a98.253,98.253,0,0,1,11.2833-7.9469A65.99,65.99,0,0,1,399.4192,107.9707Z" style="fill:url(#d)"/><path d="M374.3432,145.2616s-11.0839,13.9078-11.3782,18.0929l3.7446,1.3216Z" style="fill:url(#e)"/><path d="M384.9488,167.7253a101.5087,101.5087,0,0,1-6.4843,9.6678c-.5283.5988-1.0926,1.2046-1.6554,1.8034l-22.9078-8.27a57.2036,57.2036,0,0,1,1.1979-12.7064A111.6942,111.6942,0,0,0,384.9488,167.7253Z" style="fill:url(#f)"/><path d="M326.9564,383.3848c-2.781-.8846-8.5595-4.5122-10.9549-2.6158a3.4062,3.4062,0,0,0-1.0464,2.781c-.0532,2.0649-.1649,4.1541-.1928,6.2465-.0257,1.0706-.055,2.12-.0257,3.1941.0913,5.2106.3493,10.4283.4493,15.639a10.9177,10.9177,0,0,0,2.0942,3.187h15.1812V393.2383Z" style="fill:url(#g)"/><path d="M331.866,392.168s-2.6259,11.85.5953,19.6486l3.6793-1.15,1.1462-16.74Z" style="fill:url(#h)"/><path d="M411.5892,415.7229l-5.0369,7.5684L396.919,428.55l-18.3562-16.7333a77.1307,77.1307,0,0,1-13.2954.6608c-2.7238-.0275-5.56-.1378-8.3391-.2478-10.7346-.5233-20.7809-1.5694-20.7809-1.5694-3.2181-7.3241-.246-17.1741-.246-17.1741,6.9351-.7983,16.0175-1.7072,24.5494-2.5329,3.2491-.3063,6.4414-.5819,9.36-.8536q5.462-.5007,10.9239-.9844c3.9045-.3443,5.6476-.2822,8.31,2.65,1.9754,2.1686,4.0268,4.2884,6.0385,6.4326,4.4723,4.7669,8.9725,9.506,13.4483,14.2589C409.5533,413.5477,410.5686,414.6388,411.5892,415.7229Z" style="fill:url(#i)"/><path d="M365.2674,412.4774c-2.7238-.0275-5.56-.1378-8.3391-.2478-.2478-3.69-.8518-17.0914,3.495-21.2525l.0275-.0239c3.2491-.3063,6.4414-.5819,9.3581-.8536C369.8089,390.1,361.5814,398.714,365.2674,412.4774Z" style="fill:url(#j)"/><path d="M379.4266,412.6046s1.3163-7.0242,3.5141-9.523c0,0-5.5843,4.99-6.1728,8.735Z" style="fill:url(#k)"/><path d="M499.789,417.6641s11.0032-12.5589,13.76-8.26c0,0,1.7174.654-.86,3.6825,0,0,12.5553-2.8187,14.62,3.373,0,0,.8607,5.8476-2.5812,8.2564,0,0-17.0257,2.8776-24.9385,2.4677Z" style="fill:url(#l)"/><path d="M433.4782,252.4322c.07,1.4453.2118,2.891.2118,4.3366a90.2807,90.2807,0,0,1-122.8907,84.3006l-4.0181,4.5086c-7.19-3.6275-25.0932-14.1317-25.0932-14.1317l1.1975-7.5405a90.1044,90.1044,0,0,1-29.7791-63.052c-2.6087-1.8995-5.3224-4.085-5.3224-4.085-3.6293-13.3228,0-21.3938,0-21.3938l8.9517-4.5808a89.6948,89.6948,0,0,1,11.7363-24.7423,13.3038,13.3038,0,0,1,3.4537-11.7362c4.1936-4.4395,11.03-5.7784,14.2036-11.3813,5.99-10.6455,20.0532-12.0531,28.5816-11.8776a90.1865,90.1865,0,0,1,28.5816-4.6872,87.8249,87.8249,0,0,1,17.8674,1.7963,21.5321,21.5321,0,0,1,2.1509.4232c.1413.0346.2822.0726.4218.1068.3887.1068.812.1756,1.1993.3169a84.9268,84.9268,0,0,1,15.682,5.4274h.0363c1.2339.5645,2.466,1.1288,3.6653,1.7621,1.0221.53,2.0082,1.0566,2.996,1.6212h.0345A90.5416,90.5416,0,0,1,426.43,221.2779C431.2946,223.7456,438.8351,231.111,433.4782,252.4322Z" style="fill:url(#m)"/><path d="M361.9842,139.3418s-17.0674,3.452-23.0629,27.1514l19.43-6.5667Z" style="fill:url(#n)"/><circle cx="236.0121" cy="328.1922" r="10.2809" style="fill:url(#o)"/><circle cx="447.6345" cy="329.7263" r="6.2502" transform="matrix(0.3021, -0.9533, 0.9533, 0.3021, -1.9012, 656.8558)" style="fill:url(#p)"/><circle cx="456.5917" cy="184.5897" r="10.2809" style="fill:url(#q)"/><circle cx="254.0729" cy="154.9688" r="10.2809" transform="translate(-25.8611 53.9475) rotate(-11.5374)" style="fill:url(#r)"/><path d="M320.3328,224.0487c-9.3545,11.64-23.0058,16.2-30.4882,10.1873-7.4838-6.016-5.9659-20.3267,3.3886-31.97,9.3559-11.633,23.0041-16.2,30.4878-10.1838C331.2035,198.0948,329.6873,212.4055,320.3328,224.0487Z" style="mix-blend-mode:multiply;fill:url(#s)"/><path d="M402.954,276.2278c-8.3289,10.3663-20.5881,14.3449-27.3752,8.89-6.7906-5.4518-5.5395-18.2823,2.7912-28.6451,8.329-10.3663,20.5829-14.3449,27.3735-8.8865C412.5306,253.0345,411.283,265.865,402.954,276.2278Z" style="mix-blend-mode:multiply;fill:url(#t)"/><path d="M335.5641,207.5423s-2.481,49.2248-45.0122,33.4945C290.5519,241.0368,324.2037,252.09,335.5641,207.5423Z" style="fill:url(#u)"/><path d="M364.9319,260.1434s-12.9975,18.6314,4.5069,30.1439C369.4388,290.2873,359.735,278.3255,364.9319,260.1434Z" style="fill:url(#v)"/><path d="M399.5269,236.887s-19.5-5.4469-26.03,9.7974C373.4967,246.6844,380.6219,237.2177,399.5269,236.887Z" style="fill:url(#w)"/><path d="M313.083,281.3973c0,7.3548-6.2654,13.3161-13.9939,13.3161-7.73,0-13.9974-5.9613-13.9974-13.3161s6.2673-13.3194,13.9974-13.3194C306.8176,268.0779,313.083,274.0424,313.083,281.3973Z" style="mix-blend-mode:multiply;fill:url(#x)"/><path d="M370.4577,318.915c0,7.3552-6.2676,13.3162-13.9957,13.3162-7.73,0-13.9956-5.961-13.9956-13.3162s6.2654-13.3193,13.9956-13.3193C364.19,305.5957,370.4577,311.56,370.4577,318.915Z" style="mix-blend-mode:multiply;fill:url(#y)"/><path d="M341.549,305.5957s-13.6806,12.4728,0,26.6355C341.549,332.2312,320.94,320.33,341.549,305.5957Z" style="fill:url(#z)"/><path d="M422.1484,366.6306s2.9836-18.5747,13.0747-19.9513c0,0,7.1105,2.2922,0,11.2369,0,0,5.734.6886,1.6039,4.8184l-10.5489,10.5489Z" style="fill:url(#aa)"/><path d="M450.36,392.1715l-22.696,9.8328c-3.8408-2.361-7.5423-5.0042-11.4177-7.2618a27.7471,27.7471,0,0,1-3.56-2.079c-1.1271-.9879-.9516-2.22-.5629-3.5243.4219-1.4453.8812-2.8529,1.3389-4.264.9156-2.8913,1.8672-5.7443,2.996-8.563.9157-2.3267,1.9018-4.6531,2.9943-6.9076.2477-.4955,3.2437-5.7819,3.3488-5.7819,0,0,4.8631,4.1611,8.8812,4.264L427.24,385.0161a8.9917,8.9917,0,0,0,.8466.53,20.3665,20.3665,0,0,0,8.9862,3.101S446.2364,388.1172,450.36,392.1715Z" style="fill:url(#ab)"/><path d="M478.1133,396.0225c.6988-.3888,4.7979,3.8513,5.2075,4.2852,3.3727,3.5585,6.0846,9.3992,2.8084,13.7461-3.5725,4.7253-9.4577,8.239-13.8976,12.1732a122.764,122.764,0,0,1-16.1451,12.1249,111.8088,111.8088,0,0,1-9.7915,5.493,50.7463,50.7463,0,0,1-20.9942,5.4721s-4.2986.172-5.8475-12.5587l34.6613-22.0162,9.203-4.65,3.9578-8.0981S478.1066,396.026,478.1133,396.0225Z" style="fill:url(#ac)"/><path d="M401.0488,415.4268s29.6347-19.3148,38.3593-22.0542a130.8372,130.8372,0,0,1,15.4808-3.273l13.9354,12.6652,3.094,12.662S436.82,438.2,430.976,443.58Z" style="fill:url(#ad)"/><path d="M453.53,390.2923l-7.0591,1.28s-3.6515,20.6844,23.9715,17.0223l.616-6.601S460.9465,405.236,453.53,390.2923Z" style="fill:url(#ae)"/><path d="M486.5317,389.621c0,8.5115-7.6818,15.4187-17.1565,15.4187-9.4821,0-17.164-6.9072-17.164-15.4187,0-8.5147,7.6819-15.422,17.164-15.422C478.85,374.199,486.5317,381.1063,486.5317,389.621Z" style="fill:url(#af)"/><path d="M468.1325,374.2438S456.93,369.78,453.53,383.6875c-1.6521,6.76,4.4054,14.2282,10.3766,16.3893,6.9,2.5023,16.5994-.695,14.3519-9.55a35.7419,35.7419,0,0,0-4.6326-11.1579A17.0016,17.0016,0,0,0,468.1325,374.2438Z" style="fill:url(#ag)"/><polygon points="436.483 399.664 446.312 409.032 430.267 416.631 419.453 408.509 436.483 399.664" style="fill:url(#ah)"/><path d="M322.1587,487.86c-.12,0-.2445-.0032-.3665-.0032-9.038-.124-17.9-4.8459-26.3461-14.0421l2.0272-1.8587c7.8986,8.5975,16.0813,13.0236,24.3189,13.1473,10.49.1551,17.649-6.9626,17.7177-7.0348,5.1867-5.1969,11.3764-11.02,18.057-14.9024,8.7691-5.0937,16.3238-.7123,21.9235,3.6758a43.2388,43.2388,0,0,0,13.042,7.1448c13.2093,4.22,29.9944-1.2632,37.418-12.2215,9.85-14.5307,3.452-40.3813,1.26-47.96l2.6432-.7672c2.9185,10.0876,8.6109,35.1738-1.6211,50.2725-8.0639,11.898-26.2429,17.8661-40.5363,13.3021a46.0884,46.0884,0,0,1-13.9009-7.6026c-7.4031-5.7992-13.0405-6.835-18.8482-3.4623-6.4032,3.7206-12.4281,9.3958-17.4752,14.4517A28.73,28.73,0,0,1,322.1587,487.86Z" style="fill:#e7e7e7"/><path d="M322.957,487.86c-.1184,0-.2424-.0032-.3665-.0032-9.0359-.124-17.9-4.8459-26.3444-14.0421l2.0254-1.8587c7.899,8.5975,16.0813,13.0236,24.319,13.1473,10.4921.1551,17.6492-6.9626,17.72-7.0348,5.1864-5.1969,11.3747-11.02,18.0567-14.9024,8.7694-5.0937,16.3223-.7123,21.9235,3.6758a43.1989,43.1989,0,0,0,13.0423,7.1448c13.2076,4.22,29.9924-1.2632,37.42-12.2215,9.8465-14.5307,3.4485-40.3813,1.2561-47.96l2.6432-.7672c2.9184,10.0876,8.6112,35.1738-1.6208,50.2725-8.064,11.898-26.2411,17.8661-40.5363,13.3021a46.0884,46.0884,0,0,1-13.9009-7.6026c-7.4031-5.7992-13.0388-6.835-18.8468-3.4623-6.405,3.7206-12.4281,9.3958-17.4769,14.4517A28.723,28.723,0,0,1,322.957,487.86Z" style="fill:url(#ai)"/><path d="M431.9983,442.4267c-8.1756,8.67-37.4282-2.9942-44.8278-6.3429-1.4111-.6711-2.855-1.3044-4.23-2.01V434.04a14.8452,14.8452,0,0,1-1.48-.74l-1.9031,1.2321-.9157.5988-5.71,3.7L356.7545,449.3c-6.307-3.242-10.22-11.4881-10.22-11.4881A212.37,212.37,0,0,1,361.69,420.0835c1.6554-1.7276,3.2057-3.242,4.5809-4.5121,10.115-9.4095,14.1331-9.0931,14.1331-9.0931,12.2286-1.8686,41.7614,15.12,41.7614,15.12,5.605,2.0444,10.8209,5.8164,11.8066,12.0527C434.5711,437.74,433.7965,440.5582,431.9983,442.4267Z" style="fill:url(#aj)"/><path d="M378.6435,435.1273l-5.6977,3.6892A33.07,33.07,0,0,1,361.6917,420.07c1.6483-1.7071,3.19-3.218,4.5946-4.5121A67.9069,67.9069,0,0,0,378.6435,435.1273Z" style="fill:url(#ak)"/><path d="M435.5709,413.479a2.69,2.69,0,1,1-2.6879-2.6915A2.6873,2.6873,0,0,1,435.5709,413.479Z" style="fill:url(#al)"/><path d="M533.6486,343.7915v-35.79H460.85V278.1553l77.166-112.9628h28.6348V278.028h22.0818v29.9737H566.6507v35.79Zm0-65.7635V217.2444L492.7577,278.028Z" style="fill:#3162c3"/><path d="M462.0235,413.0384s-8.4562,3.41-12.8615,10.1634l-7.9984,12.7822,15.9143-10.7931,4.9456-3.2765Z" style="fill:url(#am)"/><path d="M504.6007,427.8a83.9078,83.9078,0,0,1-17.6249,6.7528,109.4393,109.4393,0,0,1-14.7854,2.7222,73.2456,73.2456,0,0,1-8.8626.5128c-2.8289-.01-4.3053-3.4175-5.1074-5.6065a20,20,0,0,1-1.1252-7.0277,13.4415,13.4415,0,0,1,.0652-1.4386c.53-12.5141,13.2883-15.12,13.2883-15.12,3.101,2.571,4.8289,6.8354,5.6374,9.2685a18.3344,18.3344,0,0,1,.4959,1.8655c6.5185-.3511,25.0932-4.1576,25.0932-4.1576Z" style="fill:url(#an)"/><path d="M476.582,419.729s-4.3712.2477-7.19,2.8909c.351-.4578,3.2423-4.1918,6.66-4.7564h.0342A18.3344,18.3344,0,0,1,476.582,419.729Z" style="fill:url(#ao)"/><path d="M382.9407,434.04a14.8452,14.8452,0,0,1-1.48-.74l-1.9031,1.2321c-.5646-2.9255.8811-10.0082.8811-10.0082C380.4385,428.0131,382.6943,433.51,382.9407,434.04Z" style="fill:url(#ap)"/><path d="M428.0868,385.5462c-2.0787,1.8654-7.4014,2.9255-7.4014,2.9255a19.5463,19.5463,0,0,0,6.5548-3.4556A8.9917,8.9917,0,0,0,428.0868,385.5462Z" style="fill:url(#aq)"/><polygon points="376.692 165.96 390.147 148.975 381.76 167.98 376.692 165.96" style="fill:url(#ar)"/><path d="M390.8358,184.59l-6.52-8.3874c1.0221.53,2.0082,1.0566,2.996,1.6212h.0345Z" style="fill:url(#as)"/><path d="M364.9319,169.0128l-.1772,1.514-2.7842,7.3689,1.34-9.3066c.1413.0346.2822.0726.4218.1068C364.1213,168.8027,364.5446,168.8715,364.9319,169.0128Z" style="fill:url(#at)"/><path d="M376.6921,142.773s-9.8655,7.5649-14.7079,35.109l8.0534-14.5275Z" style="fill:url(#au)"/><path d="M390.3128,148.9751s10.9771,13.5223.5314,35.6213l-10.8171-17.4251Z" style="fill:url(#av)"/><path d="M170.6473,343.7915v-35.79H97.8486V278.1553l77.166-112.9628h28.6348V278.028h22.0818v29.9737H203.6494v35.79Zm0-65.7635V217.2444L129.7564,278.028Z" style="fill:#3162c3"/><path d="M347.5135,436.5211a14.7671,14.7671,0,0,1-4.264,1.5968c0,3.3523,2.4159,6.0058,4.55,8.2772a41.7046,41.7046,0,0,0,6.0523,5.1592,11.015,11.015,0,0,0,1.2663.86c.0035-.0067,2.4522-3.6276,2.4522-3.6276Z" style="fill:url(#aw)"/><circle cx="76.3933" cy="163.5079" r="5.8937" transform="translate(-35.3779 21.8112) rotate(-13.2239)" style="fill:#3162c3"/><path d="M118.8315,119.2266a4.6218,4.6218,0,0,1-3.0478,3.0478,4.6219,4.6219,0,0,1,3.0478,3.0477,4.6217,4.6217,0,0,1,3.0477-3.0477A4.6216,4.6216,0,0,1,118.8315,119.2266Z" style="fill:#3162c3"/><path d="M22.1416,173.0637a4.6222,4.6222,0,0,1-3.0479,3.0477,4.6221,4.6221,0,0,1,3.0479,3.0478,4.6216,4.6216,0,0,1,3.0477-3.0478A4.6217,4.6217,0,0,1,22.1416,173.0637Z" style="fill:#3162c3"/><path d="M121.8792,201.9981a4.6217,4.6217,0,0,1-3.0477,3.0477,4.6222,4.6222,0,0,1,3.0477,3.0479,4.6221,4.6221,0,0,1,3.0478-3.0479A4.6216,4.6216,0,0,1,121.8792,201.9981Z" style="fill:#3162c3"/><circle cx="62.1664" cy="195.0585" r="2.2364" style="fill:#3162c3"/><circle cx="131.5089" cy="164.5536" r="2.2364" style="fill:#3162c3"/><path d="M46.408,132.5463a3.3913,3.3913,0,0,1-2.2364,2.2364,3.3916,3.3916,0,0,1,2.2364,2.2365,3.3919,3.3919,0,0,1,2.2365-2.2365A3.3916,3.3916,0,0,1,46.408,132.5463Z" style="fill:#3162c3"/><path d="M79.077,127.7374a1.8058,1.8058,0,0,1-1.1907,1.1907,1.8058,1.8058,0,0,1,1.1907,1.1908,1.8059,1.8059,0,0,1,1.1908-1.1908A1.806,1.806,0,0,1,79.077,127.7374Z" style="fill:#3162c3"/><path d="M101.3259,186.2594a1.806,1.806,0,0,1-1.1907,1.1908,1.8056,1.8056,0,0,1,1.1907,1.1907,1.8056,1.8056,0,0,1,1.1908-1.1907A1.8059,1.8059,0,0,1,101.3259,186.2594Z" style="fill:#3162c3"/><path d="M31.7683,206.9029a1.8057,1.8057,0,0,1-1.1908,1.1908,1.8052,1.8052,0,0,1,1.1908,1.1907,1.8056,1.8056,0,0,1,1.1907-1.1907A1.8062,1.8062,0,0,1,31.7683,206.9029Z" style="fill:#3162c3"/><path d="M22.1416,144.4685a1.806,1.806,0,0,1-1.1908,1.1907,1.8061,1.8061,0,0,1,1.1908,1.1908,1.8056,1.8056,0,0,1,1.1907-1.1908A1.8054,1.8054,0,0,1,22.1416,144.4685Z" style="fill:#3162c3"/><path d="M111.7107,148.47a1.8056,1.8056,0,0,1-1.1907,1.1908,1.8056,1.8056,0,0,1,1.1907,1.1907,1.806,1.806,0,0,1,1.1908-1.1907A1.8059,1.8059,0,0,1,111.7107,148.47Z" style="fill:#3162c3"/><path d="M146.9038,133.592a1.8054,1.8054,0,0,1-1.1908,1.1907,1.8057,1.8057,0,0,1,1.1908,1.1908,1.8057,1.8057,0,0,1,1.1908-1.1908A1.8054,1.8054,0,0,1,146.9038,133.592Z" style="fill:#3162c3"/><path d="M140.4149,186.2594a1.806,1.806,0,0,1-1.1907,1.1908,1.8056,1.8056,0,0,1,1.1907,1.1907,1.8056,1.8056,0,0,1,1.1908-1.1907A1.8059,1.8059,0,0,1,140.4149,186.2594Z" style="fill:#3162c3"/><path d="M54.3057,156.4233a1.8055,1.8055,0,0,1-1.1908,1.1908,1.806,1.806,0,0,1,1.1908,1.1907,1.8056,1.8056,0,0,1,1.1907-1.1907A1.8052,1.8052,0,0,1,54.3057,156.4233Z" style="fill:#3162c3"/><path d="M82.2871,209.9506a1.8061,1.8061,0,0,1-1.1908,1.1908,1.8062,1.8062,0,0,1,1.1908,1.1907,1.8056,1.8056,0,0,1,1.1907-1.1907A1.8056,1.8056,0,0,1,82.2871,209.9506Z" style="fill:#3162c3"/><path d="M81.0963,104.6231a1.8058,1.8058,0,0,1-1.1907,1.1907,1.806,1.806,0,0,1,1.1907,1.1907,1.8058,1.8058,0,0,1,1.1908-1.1907A1.8056,1.8056,0,0,1,81.0963,104.6231Z" style="fill:#3162c3"/><path d="M34.15,114.4679a1.8056,1.8056,0,0,1-1.1908,1.1907,1.8053,1.8053,0,0,1,1.1908,1.1908,1.8058,1.8058,0,0,1,1.1907-1.1908A1.806,1.806,0,0,1,34.15,114.4679Z" style="fill:#3162c3"/><path d="M1.1907,164.5536A1.8054,1.8054,0,0,1,0,165.7443a1.8056,1.8056,0,0,1,1.1907,1.1908,1.8059,1.8059,0,0,1,1.1908-1.1908A1.8058,1.8058,0,0,1,1.1907,164.5536Z" style="fill:#3162c3"/><circle cx="266.2772" cy="407.8211" r="5.8937" transform="translate(-210.3822 307.7345) rotate(-45)" style="fill:#3162c3"/><path d="M145.26,403.5826a4.6219,4.6219,0,0,1-3.0478,3.0477,4.622,4.622,0,0,1,3.0478,3.0478,4.622,4.622,0,0,1,3.0478-3.0478A4.6219,4.6219,0,0,1,145.26,403.5826Z" style="fill:#3162c3"/><path d="M221.4712,407.8211a4.6216,4.6216,0,0,1-3.0478,3.0477,4.6222,4.6222,0,0,1,3.0478,3.0478,4.622,4.622,0,0,1,3.0478-3.0478A4.6214,4.6214,0,0,1,221.4712,407.8211Z" style="fill:#3162c3"/><path d="M170.052,452.2051a4.6217,4.6217,0,0,1-3.0477,3.0477,4.6219,4.6219,0,0,1,3.0477,3.0478,4.622,4.622,0,0,1,3.0478-3.0478A4.6219,4.6219,0,0,1,170.052,452.2051Z" style="fill:#3162c3"/><circle cx="110.3392" cy="445.2655" r="2.2364" style="fill:#3162c3"/><path d="M179.6817,412.5241a3.3914,3.3914,0,0,1-2.2365,2.2364,3.3917,3.3917,0,0,1,2.2365,2.2365,3.3918,3.3918,0,0,1,2.2364-2.2365A3.3915,3.3915,0,0,1,179.6817,412.5241Z" style="fill:#3162c3"/><path d="M232.2465,434.6188a3.3919,3.3919,0,0,1-2.2365,2.2365,3.3914,3.3914,0,0,1,2.2365,2.2364,3.391,3.391,0,0,1,2.2364-2.2364A3.3916,3.3916,0,0,1,232.2465,434.6188Z" style="fill:#3162c3"/><path d="M254.9026,440.8882a1.1908,1.1908,0,0,0,0,2.3815,1.1908,1.1908,0,1,0,0-2.3815Z" style="fill:#3162c3"/><path d="M127.25,377.9443a1.1908,1.1908,0,0,0,0,2.3815,1.1908,1.1908,0,1,0,0-2.3815Z" style="fill:#3162c3"/><path d="M149.4987,436.4664a1.1908,1.1908,0,0,0,0,2.3815,1.1908,1.1908,0,1,0,0-2.3815Z" style="fill:#3162c3"/><path d="M70.3144,394.6755a1.1908,1.1908,0,1,0,0,2.3815,1.1908,1.1908,0,0,0,0-2.3815Z" style="fill:#3162c3"/><path d="M159.8835,398.6771a1.1908,1.1908,0,0,0,0,2.3815,1.1908,1.1908,0,1,0,0-2.3815Z" style="fill:#3162c3"/><path d="M195.0766,383.799a1.1908,1.1908,0,0,0,0,2.3815,1.1908,1.1908,0,1,0,0-2.3815Z" style="fill:#3162c3"/><path d="M188.5877,436.4664a1.1908,1.1908,0,0,0,0,2.3815,1.1908,1.1908,0,1,0,0-2.3815Z" style="fill:#3162c3"/><path d="M102.4785,406.63a1.1907,1.1907,0,1,0,0,2.3814,1.1907,1.1907,0,1,0,0-2.3814Z" style="fill:#3162c3"/><path d="M130.46,460.1576a1.1908,1.1908,0,0,0,0,2.3815,1.1908,1.1908,0,1,0,0-2.3815Z" style="fill:#3162c3"/><path d="M221.0576,386.013a1.1908,1.1908,0,0,0,0,2.3815,1.1908,1.1908,0,1,0,0-2.3815Z" style="fill:#3162c3"/><path d="M104.4868,386.013a1.1908,1.1908,0,0,0,0,2.3815,1.1908,1.1908,0,1,0,0-2.3815Z" style="fill:#3162c3"/><path d="M92.3945,427.9764a1.1908,1.1908,0,1,0,0,2.3815,1.1908,1.1908,0,0,0,0-2.3815Z" style="fill:#3162c3"/><path d="M481.563,449.3172a5.569,5.569,0,0,1-3.6724,3.6724,5.5686,5.5686,0,0,1,3.6724,3.6723,5.5688,5.5688,0,0,1,3.6724-3.6723A5.5692,5.5692,0,0,1,481.563,449.3172Z" style="fill:#3162c3"/><path d="M595.5314,448.6035a4.622,4.622,0,0,1-3.0478,3.0478,4.622,4.622,0,0,1,3.0478,3.0478,4.6218,4.6218,0,0,1,3.0478-3.0478A4.6218,4.6218,0,0,1,595.5314,448.6035Z" style="fill:#3162c3"/><path d="M498.8414,502.4406a4.6219,4.6219,0,0,1-3.0477,3.0477,4.6219,4.6219,0,0,1,3.0477,3.0478,4.622,4.622,0,0,1,3.0478-3.0478A4.6221,4.6221,0,0,1,498.8414,502.4406Z" style="fill:#3162c3"/><circle cx="534.0533" cy="437.288" r="3.0477" style="fill:#3162c3"/><path d="M460.3969,466.3961a3.3916,3.3916,0,0,1-2.2364,2.2365,3.391,3.391,0,0,1,2.2364,2.2364,3.3914,3.3914,0,0,1,2.2365-2.2364A3.3919,3.3919,0,0,1,460.3969,466.3961Z" style="fill:#3162c3"/><path d="M608.2088,491.694a3.3912,3.3912,0,0,1-2.2365,2.2364,3.3915,3.3915,0,0,1,2.2365,2.2365,3.3915,3.3915,0,0,1,2.2365-2.2365A3.3912,3.3912,0,0,1,608.2088,491.694Z" style="fill:#3162c3"/><path d="M523.1079,461.9232a3.3913,3.3913,0,0,1-2.2364,2.2364,3.3916,3.3916,0,0,1,2.2364,2.2365,3.3919,3.3919,0,0,1,2.2365-2.2365A3.3916,3.3916,0,0,1,523.1079,461.9232Z" style="fill:#3162c3"/><path d="M555.7769,457.1142a1.1908,1.1908,0,0,0,0,2.3815,1.1908,1.1908,0,1,0,0-2.3815Z" style="fill:#3162c3"/><path d="M578.0258,515.6363a1.1908,1.1908,0,0,0,0,2.3815,1.1908,1.1908,0,1,0,0-2.3815Z" style="fill:#3162c3"/><path d="M528.6241,519.45a1.1908,1.1908,0,1,0,0,2.3815,1.1908,1.1908,0,0,0,0-2.3815Z" style="fill:#3162c3"/><path d="M498.8414,473.8454a1.1908,1.1908,0,0,0,0,2.3815,1.1908,1.1908,0,1,0,0-2.3815Z" style="fill:#3162c3"/><path d="M588.4107,477.8471a1.1908,1.1908,0,1,0,0,2.3815,1.1908,1.1908,0,0,0,0-2.3815Z" style="fill:#3162c3"/><path d="M623.6037,462.9689a1.1908,1.1908,0,0,0,0,2.3815,1.1908,1.1908,0,1,0,0-2.3815Z" style="fill:#3162c3"/><path d="M617.1148,515.6363a1.1908,1.1908,0,0,0,0,2.3815,1.1908,1.1908,0,1,0,0-2.3815Z" style="fill:#3162c3"/><path d="M531.0056,485.8a1.1908,1.1908,0,1,0,0,2.3815,1.1908,1.1908,0,0,0,0-2.3815Z" style="fill:#3162c3"/><path d="M557.4727,527.2818a1.1908,1.1908,0,1,0,0,2.3815,1.1908,1.1908,0,0,0,0-2.3815Z" style="fill:#3162c3"/><path d="M557.7962,434a1.1908,1.1908,0,1,0,0,2.3815,1.1908,1.1908,0,0,0,0-2.3815Z" style="fill:#3162c3"/><path d="M510.85,443.8447a1.1908,1.1908,0,1,0,0,2.3815,1.1908,1.1908,0,0,0,0-2.3815Z" style="fill:#3162c3"/><path d="M477.8906,493.93a1.1908,1.1908,0,0,0,0,2.3815,1.1908,1.1908,0,1,0,0-2.3815Z" style="fill:#3162c3"/><path d="M650.7369,271.6466a4.6216,4.6216,0,0,1-3.0478,3.0477,4.622,4.622,0,0,1,3.0478,3.0478,4.622,4.622,0,0,1,3.0478-3.0478A4.6216,4.6216,0,0,1,650.7369,271.6466Z" style="fill:#3162c3"/><circle cx="598.5129" cy="321.212" r="3.0477" style="fill:#3162c3"/><path d="M653.7846,354.418a4.6216,4.6216,0,0,1-3.0477,3.0478,4.6216,4.6216,0,0,1,3.0477,3.0478,4.622,4.622,0,0,1,3.0478-3.0478A4.622,4.622,0,0,1,653.7846,354.418Z" style="fill:#3162c3"/><path d="M594.0718,345.242a3.3913,3.3913,0,0,1-2.2364,2.2364,3.3914,3.3914,0,0,1,2.2364,2.2365,3.3917,3.3917,0,0,1,2.2365-2.2365A3.3916,3.3916,0,0,1,594.0718,345.242Z" style="fill:#3162c3"/><circle cx="663.4143" cy="316.9735" r="2.2364" style="fill:#3162c3"/><path d="M615.3832,305.5612a3.3912,3.3912,0,0,1-2.2365,2.2364,3.3913,3.3913,0,0,1,2.2365,2.2365,3.3915,3.3915,0,0,1,2.2365-2.2365A3.3914,3.3914,0,0,1,615.3832,305.5612Z" style="fill:#3162c3"/><path d="M610.9824,280.1573a1.8054,1.8054,0,0,1-1.1907,1.1907,1.1908,1.1908,0,1,0,2.3815,0A1.8058,1.8058,0,0,1,610.9824,280.1573Z" style="fill:#3162c3"/><path d="M633.2313,338.6793a1.8056,1.8056,0,0,1-1.1907,1.1908,1.1908,1.1908,0,0,0,2.3815,0A1.8059,1.8059,0,0,1,633.2313,338.6793Z" style="fill:#3162c3"/><path d="M563.6738,359.3228a1.1908,1.1908,0,1,0,0,2.3815,1.1908,1.1908,0,0,0,0-2.3815Z" style="fill:#3162c3"/><path d="M586.88,267.4624a1.806,1.806,0,0,1-1.1908,1.1907,1.1908,1.1908,0,1,0,2.3815,0A1.806,1.806,0,0,1,586.88,267.4624Z" style="fill:#3162c3"/><path d="M643.6162,300.89a1.8058,1.8058,0,0,1-1.1908,1.1907,1.1908,1.1908,0,1,0,2.3815,0A1.8054,1.8054,0,0,1,643.6162,300.89Z" style="fill:#3162c3"/><path d="M678.8092,286.0119a1.8056,1.8056,0,0,1-1.1907,1.1908,1.1908,1.1908,0,0,0,2.3815,0A1.8059,1.8059,0,0,1,678.8092,286.0119Z" style="fill:#3162c3"/><path d="M672.32,338.6793A1.8056,1.8056,0,0,1,671.13,339.87a1.1908,1.1908,0,0,0,2.3815,0A1.8059,1.8059,0,0,1,672.32,338.6793Z" style="fill:#3162c3"/><path d="M544.137,353.4728a1.1908,1.1908,0,0,0,0,2.3815,1.1908,1.1908,0,1,0,0-2.3815Z" style="fill:#3162c3"/><path d="M614.1925,362.3705a1.1908,1.1908,0,0,0,0,2.3816,1.1908,1.1908,0,0,0,0-2.3816Z" style="fill:#3162c3"/><path d="M613.0017,257.043a1.8054,1.8054,0,0,1-1.1908,1.1907,1.1908,1.1908,0,1,0,2.3816,0A1.8056,1.8056,0,0,1,613.0017,257.043Z" style="fill:#3162c3"/><path d="M637.16,250.7809a1.8054,1.8054,0,0,1-1.1907,1.1907,1.1908,1.1908,0,1,0,2.3815,0A1.8056,1.8056,0,0,1,637.16,250.7809Z" style="fill:#3162c3"/><path d="M577.0115,343.7915a1.8059,1.8059,0,0,1-1.1908,1.1908,1.1908,1.1908,0,1,0,2.3815,0A1.806,1.806,0,0,1,577.0115,343.7915Z" style="fill:#3162c3"/><path d="M426.43,221.2779q-1.2593-2.9588-2.7242-5.8022c.01.589.0223,1.1773.0223,1.7686a103.96,103.96,0,0,1-154.9073,90.6021,90.6479,90.6479,0,0,0,14.065,16.0594l-1.1975,7.5405s17.9037,10.5041,25.0932,14.1317l4.0181-4.5087a90.28,90.28,0,0,0,122.8907-84.3c0-1.4456-.1413-2.8913-.2118-4.3366C438.8351,231.111,431.2946,223.7456,426.43,221.2779Z" style="mix-blend-mode:multiply;fill:url(#ax)"/></g></svg>
