<svg id="b79fdc00-2431-4784-aca7-ac16de732cef" data-name="Layer 1" xmlns="http://www.w3.org/2000/svg" viewBox="0 0 28 28">
  <defs>
    <style>
      .e581f1f0-6e0f-4e30-9c3f-bb91d5eed297 {
        fill: #8755eb;
      }

      .a39a6893-cb34-4c79-957c-c894e39a7165 {
        fill: #fff;
      }
    </style>
  </defs>
  <rect class="e581f1f0-6e0f-4e30-9c3f-bb91d5eed297" width="28" height="28" rx="14"/>
  <g>
    <polygon class="a39a6893-cb34-4c79-957c-c894e39a7165" points="6.884 16.531 6.884 8.754 5.522 8.754 5.522 19.845 10.122 15.23 14.706 19.845 14.706 17.923 10.122 13.293 6.884 16.531"/>
    <path class="a39a6893-cb34-4c79-957c-c894e39a7165" d="M22.114,10.373A5.539,5.539,0,0,0,18.18,8.754H13.345v6.374l1.361,1.362V10.115H18.18a4.184,4.184,0,1,1,0,8.368H16.072v1.362H18.18a5.539,5.539,0,0,0,3.934-1.619,5.532,5.532,0,0,0,0-7.853Z"/>
  </g>
</svg>
